<svg width="37" height="37" viewBox="0 0 37 37" fill="none" xmlns="http://www.w3.org/2000/svg">
<g clip-path="url(#clip0_2_212)">
<path d="M30.8334 9.24992H24.6667V6.16659C24.6667 4.47075 23.2792 3.08325 21.5834 3.08325H15.4167C13.7209 3.08325 12.3334 4.47075 12.3334 6.16659V9.24992H6.16671C4.47087 9.24992 3.08337 10.6374 3.08337 12.3333V30.8333C3.08337 32.5291 4.47087 33.9166 6.16671 33.9166H30.8334C32.5292 33.9166 33.9167 32.5291 33.9167 30.8333V12.3333C33.9167 10.6374 32.5292 9.24992 30.8334 9.24992ZM15.4167 6.16659H21.5834V9.24992H15.4167V6.16659ZM30.8334 30.8333H6.16671V12.3333H30.8334V30.8333Z" fill="#03A9F5"/>
<path d="M20.0417 15.4166H16.9584V20.0416H12.3334V23.125H16.9584V27.75H20.0417V23.125H24.6667V20.0416H20.0417V15.4166Z" fill="#03A9F5"/>
</g>
<defs>
<clipPath id="clip0_2_212">
<rect width="37" height="37" fill="white"/>
</clipPath>
</defs>
</svg>
