<svg width="37" height="37" viewBox="0 0 37 37" fill="none" xmlns="http://www.w3.org/2000/svg">
<g clip-path="url(#clip0_2_186)">
<path d="M29.2917 21.5834V9.25008C29.2917 7.55425 27.9042 6.16675 26.2084 6.16675H4.62508C2.92925 6.16675 1.54175 7.55425 1.54175 9.25008V21.5834C1.54175 23.2792 2.92925 24.6667 4.62508 24.6667H26.2084C27.9042 24.6667 29.2917 23.2792 29.2917 21.5834ZM26.2084 21.5834H4.62508V9.25008H26.2084V21.5834ZM15.4167 10.7917C12.8576 10.7917 10.7917 12.8576 10.7917 15.4167C10.7917 17.9759 12.8576 20.0417 15.4167 20.0417C17.9759 20.0417 20.0417 17.9759 20.0417 15.4167C20.0417 12.8576 17.9759 10.7917 15.4167 10.7917ZM35.4584 10.7917V27.7501C35.4584 29.4459 34.0709 30.8334 32.3751 30.8334H6.16675C6.16675 29.2917 6.16675 29.4459 6.16675 27.7501H32.3751V10.7917C34.0709 10.7917 33.9167 10.7917 35.4584 10.7917Z" fill="#FED600"/>
</g>
<defs>
<clipPath id="clip0_2_186">
<rect width="37" height="37" fill="white"/>
</clipPath>
</defs>
</svg>
